<?xml version="1.0" encoding="UTF-8" ?>
<svg version="1.1" width="64" height="64" xmlns="http://www.w3.org/2000/svg" shape-rendering="crispEdges">
<rect x="24" y="12" width="2" height="2" fill="#FFFFFF" />
<rect x="26" y="12" width="2" height="2" fill="#FFFFFF" />
<rect x="28" y="12" width="2" height="2" fill="#FFFFFF" />
<rect x="30" y="12" width="2" height="2" fill="#FFFFFF" />
<rect x="32" y="12" width="2" height="2" fill="#FFFFFF" />
<rect x="34" y="12" width="2" height="2" fill="#FFFFFF" />
<rect x="36" y="12" width="2" height="2" fill="#FFFFFF" />
<rect x="38" y="12" width="2" height="2" fill="#FFFFFF" />
<rect x="40" y="12" width="2" height="2" fill="#FFFFFF" />
<rect x="20" y="14" width="2" height="2" fill="#FFFFFF" />
<rect x="22" y="14" width="2" height="2" fill="#FFFFFF" />
<rect x="24" y="14" width="2" height="2" fill="#000000" opacity="0.992157" />
<rect x="26" y="14" width="2" height="2" fill="#000000" opacity="0.992157" />
<rect x="28" y="14" width="2" height="2" fill="#010000" />
<rect x="30" y="14" width="2" height="2" fill="#010000" />
<rect x="32" y="14" width="2" height="2" fill="#000000" />
<rect x="34" y="14" width="2" height="2" fill="#010000" />
<rect x="36" y="14" width="2" height="2" fill="#000000" />
<rect x="38" y="14" width="2" height="2" fill="#000000" opacity="0.992157" />
<rect x="40" y="14" width="2" height="2" fill="#000000" opacity="0.992157" />
<rect x="42" y="14" width="2" height="2" fill="#FFFFFF" />
<rect x="44" y="14" width="2" height="2" fill="#FFFFFF" />
<rect x="18" y="16" width="2" height="2" fill="#FFFFFF" />
<rect x="20" y="16" width="2" height="2" fill="#000000" opacity="0.992157" />
<rect x="22" y="16" width="2" height="2" fill="#010000" />
<rect x="24" y="16" width="2" height="2" fill="#010000" />
<rect x="26" y="16" width="2" height="2" fill="#010000" />
<rect x="28" y="16" width="2" height="2" fill="#010100" />
<rect x="30" y="16" width="2" height="2" fill="#000000" />
<rect x="32" y="16" width="2" height="2" fill="#010100" />
<rect x="34" y="16" width="2" height="2" fill="#010100" />
<rect x="36" y="16" width="2" height="2" fill="#010000" />
<rect x="38" y="16" width="2" height="2" fill="#010000" />
<rect x="40" y="16" width="2" height="2" fill="#000000" opacity="0.992157" />
<rect x="42" y="16" width="2" height="2" fill="#000000" opacity="0.992157" />
<rect x="44" y="16" width="2" height="2" fill="#000000" opacity="0.992157" />
<rect x="46" y="16" width="2" height="2" fill="#FFFFFF" />
<rect x="48" y="16" width="2" height="2" fill="#FFFFFF" />
<rect x="16" y="18" width="2" height="2" fill="#FFFFFF" />
<rect x="18" y="18" width="2" height="2" fill="#000000" opacity="0.992157" />
<rect x="20" y="18" width="2" height="2" fill="#010000" />
<rect x="22" y="18" width="2" height="2" fill="#010100" />
<rect x="24" y="18" width="2" height="2" fill="#010100" />
<rect x="26" y="18" width="2" height="2" fill="#000000" />
<rect x="28" y="18" width="2" height="2" fill="#010100" />
<rect x="30" y="18" width="2" height="2" fill="#010100" />
<rect x="32" y="18" width="2" height="2" fill="#7B3918" />
<rect x="34" y="18" width="2" height="2" fill="#000000" />
<rect x="36" y="18" width="2" height="2" fill="#000000" />
<rect x="38" y="18" width="2" height="2" fill="#010100" />
<rect x="40" y="18" width="2" height="2" fill="#010000" />
<rect x="42" y="18" width="2" height="2" fill="#000000" opacity="0.992157" />
<rect x="44" y="18" width="2" height="2" fill="#000000" opacity="0.992157" />
<rect x="46" y="18" width="2" height="2" fill="#000000" opacity="0.992157" />
<rect x="48" y="18" width="2" height="2" fill="#000000" opacity="0.992157" />
<rect x="50" y="18" width="2" height="2" fill="#FFFFFF" />
<rect x="14" y="20" width="2" height="2" fill="#FFFFFF" />
<rect x="16" y="20" width="2" height="2" fill="#000000" opacity="0.992157" />
<rect x="18" y="20" width="2" height="2" fill="#010000" />
<rect x="20" y="20" width="2" height="2" fill="#010100" />
<rect x="22" y="20" width="2" height="2" fill="#010100" />
<rect x="24" y="20" width="2" height="2" fill="#000000" />
<rect x="26" y="20" width="2" height="2" fill="#000000" />
<rect x="28" y="20" width="2" height="2" fill="#010100" />
<rect x="30" y="20" width="2" height="2" fill="#010100" />
<rect x="32" y="20" width="2" height="2" fill="#7B3918" />
<rect x="34" y="20" width="2" height="2" fill="#7B3918" />
<rect x="36" y="20" width="2" height="2" fill="#000000" />
<rect x="38" y="20" width="2" height="2" fill="#000000" />
<rect x="40" y="20" width="2" height="2" fill="#010100" />
<rect x="42" y="20" width="2" height="2" fill="#010000" />
<rect x="44" y="20" width="2" height="2" fill="#000000" opacity="0.992157" />
<rect x="46" y="20" width="2" height="2" fill="#000000" opacity="0.992157" />
<rect x="48" y="20" width="2" height="2" fill="#000000" />
<rect x="50" y="20" width="2" height="2" fill="#FFFFFF" />
<rect x="12" y="22" width="2" height="2" fill="#FFFFFF" />
<rect x="14" y="22" width="2" height="2" fill="#000000" opacity="0.992157" />
<rect x="16" y="22" width="2" height="2" fill="#000000" opacity="0.992157" />
<rect x="18" y="22" width="2" height="2" fill="#010000" />
<rect x="20" y="22" width="2" height="2" fill="#010100" />
<rect x="22" y="22" width="2" height="2" fill="#010100" />
<rect x="24" y="22" width="2" height="2" fill="#010100" />
<rect x="26" y="22" width="2" height="2" fill="#010100" />
<rect x="28" y="22" width="2" height="2" fill="#010100" />
<rect x="30" y="22" width="2" height="2" fill="#8D441F" opacity="0.992157" />
<rect x="32" y="22" width="2" height="2" fill="#8D441F" opacity="0.992157" />
<rect x="34" y="22" width="2" height="2" fill="#8D441F" opacity="0.992157" />
<rect x="36" y="22" width="2" height="2" fill="#7B3918" />
<rect x="38" y="22" width="2" height="2" fill="#010100" />
<rect x="40" y="22" width="2" height="2" fill="#010100" />
<rect x="42" y="22" width="2" height="2" fill="#010000" />
<rect x="44" y="22" width="2" height="2" fill="#000000" opacity="0.992157" />
<rect x="46" y="22" width="2" height="2" fill="#000000" opacity="0.992157" />
<rect x="48" y="22" width="2" height="2" fill="#000000" opacity="0.992157" />
<rect x="50" y="22" width="2" height="2" fill="#000000" opacity="0.992157" />
<rect x="52" y="22" width="2" height="2" fill="#FFFFFF" />
<rect x="10" y="24" width="2" height="2" fill="#FFFFFF" />
<rect x="12" y="24" width="2" height="2" fill="#000000" opacity="0.992157" />
<rect x="14" y="24" width="2" height="2" fill="#000000" opacity="0.992157" />
<rect x="16" y="24" width="2" height="2" fill="#000000" opacity="0.992157" />
<rect x="18" y="24" width="2" height="2" fill="#010000" />
<rect x="20" y="24" width="2" height="2" fill="#010100" />
<rect x="22" y="24" width="2" height="2" fill="#000000" />
<rect x="24" y="24" width="2" height="2" fill="#010100" />
<rect x="26" y="24" width="2" height="2" fill="#010100" />
<rect x="28" y="24" width="2" height="2" fill="#8E4520" />
<rect x="30" y="24" width="2" height="2" fill="#8E4520" />
<rect x="32" y="24" width="2" height="2" fill="#8D441F" opacity="0.992157" />
<rect x="34" y="24" width="2" height="2" fill="#8D441F" opacity="0.992157" />
<rect x="36" y="24" width="2" height="2" fill="#8D441F" opacity="0.992157" />
<rect x="38" y="24" width="2" height="2" fill="#010100" />
<rect x="40" y="24" width="2" height="2" fill="#000000" />
<rect x="42" y="24" width="2" height="2" fill="#010000" />
<rect x="44" y="24" width="2" height="2" fill="#000000" opacity="0.992157" />
<rect x="46" y="24" width="2" height="2" fill="#000000" opacity="0.992157" />
<rect x="48" y="24" width="2" height="2" fill="#000000" opacity="0.992157" />
<rect x="50" y="24" width="2" height="2" fill="#000000" opacity="0.992157" />
<rect x="52" y="24" width="2" height="2" fill="#FFFFFF" />
<rect x="10" y="26" width="2" height="2" fill="#FFFFFF" />
<rect x="12" y="26" width="2" height="2" fill="#000000" />
<rect x="14" y="26" width="2" height="2" fill="#000000" opacity="0.992157" />
<rect x="16" y="26" width="2" height="2" fill="#000000" />
<rect x="18" y="26" width="2" height="2" fill="#010000" />
<rect x="20" y="26" width="2" height="2" fill="#010100" />
<rect x="22" y="26" width="2" height="2" fill="#000000" />
<rect x="24" y="26" width="2" height="2" fill="#010100" />
<rect x="26" y="26" width="2" height="2" fill="#7B3918" />
<rect x="28" y="26" width="2" height="2" fill="#8E4520" />
<rect x="30" y="26" width="2" height="2" fill="#8E4520" />
<rect x="32" y="26" width="2" height="2" fill="#8E4520" />
<rect x="34" y="26" width="2" height="2" fill="#8D441F" opacity="0.992157" />
<rect x="36" y="26" width="2" height="2" fill="#8D441F" opacity="0.992157" />
<rect x="38" y="26" width="2" height="2" fill="#8E4520" />
<rect x="40" y="26" width="2" height="2" fill="#010100" />
<rect x="42" y="26" width="2" height="2" fill="#010000" />
<rect x="44" y="26" width="2" height="2" fill="#000000" opacity="0.992157" />
<rect x="46" y="26" width="2" height="2" fill="#000000" opacity="0.992157" />
<rect x="48" y="26" width="2" height="2" fill="#000000" opacity="0.992157" />
<rect x="50" y="26" width="2" height="2" fill="#000000" opacity="0.992157" />
<rect x="52" y="26" width="2" height="2" fill="#FFFFFF" />
<rect x="8" y="28" width="2" height="2" fill="#FFFFFF" />
<rect x="10" y="28" width="2" height="2" fill="#000000" opacity="0.992157" />
<rect x="12" y="28" width="2" height="2" fill="#000000" />
<rect x="14" y="28" width="2" height="2" fill="#010000" />
<rect x="16" y="28" width="2" height="2" fill="#010000" />
<rect x="18" y="28" width="2" height="2" fill="#010000" />
<rect x="20" y="28" width="2" height="2" fill="#010100" />
<rect x="22" y="28" width="2" height="2" fill="#7B3918" />
<rect x="24" y="28" width="2" height="2" fill="#7B3918" />
<rect x="26" y="28" width="2" height="2" fill="#8E4520" />
<rect x="28" y="28" width="2" height="2" fill="#010100" />
<rect x="30" y="28" width="2" height="2" fill="#010100" />
<rect x="32" y="28" width="2" height="2" fill="#8D441F" opacity="0.992157" />
<rect x="34" y="28" width="2" height="2" fill="#8D441F" opacity="0.992157" />
<rect x="36" y="28" width="2" height="2" fill="#010100" />
<rect x="38" y="28" width="2" height="2" fill="#010100" />
<rect x="40" y="28" width="2" height="2" fill="#8E4520" />
<rect x="42" y="28" width="2" height="2" fill="#010000" />
<rect x="44" y="28" width="2" height="2" fill="#000000" opacity="0.992157" />
<rect x="46" y="28" width="2" height="2" fill="#000000" opacity="0.992157" />
<rect x="48" y="28" width="2" height="2" fill="#000000" opacity="0.992157" />
<rect x="50" y="28" width="2" height="2" fill="#000000" opacity="0.992157" />
<rect x="52" y="28" width="2" height="2" fill="#FFFFFF" />
<rect x="8" y="30" width="2" height="2" fill="#FFFFFF" />
<rect x="10" y="30" width="2" height="2" fill="#000000" opacity="0.992157" />
<rect x="12" y="30" width="2" height="2" fill="#000000" />
<rect x="14" y="30" width="2" height="2" fill="#010000" />
<rect x="16" y="30" width="2" height="2" fill="#010100" />
<rect x="18" y="30" width="2" height="2" fill="#010100" />
<rect x="20" y="30" width="2" height="2" fill="#010100" />
<rect x="22" y="30" width="2" height="2" fill="#7B3918" />
<rect x="24" y="30" width="2" height="2" fill="#8E4520" />
<rect x="26" y="30" width="2" height="2" fill="#8D441F" opacity="0.992157" />
<rect x="28" y="30" width="2" height="2" fill="#8D441F" opacity="0.992157" />
<rect x="30" y="30" width="2" height="2" fill="#3F2013" />
<rect x="32" y="30" width="2" height="2" fill="#8D441F" opacity="0.992157" />
<rect x="34" y="30" width="2" height="2" fill="#8D441F" opacity="0.992157" />
<rect x="36" y="30" width="2" height="2" fill="#8D441F" opacity="0.992157" />
<rect x="38" y="30" width="2" height="2" fill="#3F2013" />
<rect x="40" y="30" width="2" height="2" fill="#8E4520" />
<rect x="42" y="30" width="2" height="2" fill="#010000" />
<rect x="44" y="30" width="2" height="2" fill="#000000" opacity="0.992157" />
<rect x="46" y="30" width="2" height="2" fill="#000000" opacity="0.992157" />
<rect x="48" y="30" width="2" height="2" fill="#000000" opacity="0.992157" />
<rect x="50" y="30" width="2" height="2" fill="#FFFFFF" />
<rect x="8" y="32" width="2" height="2" fill="#FFFFFF" />
<rect x="10" y="32" width="2" height="2" fill="#000000" opacity="0.992157" />
<rect x="12" y="32" width="2" height="2" fill="#000000" />
<rect x="14" y="32" width="2" height="2" fill="#010000" />
<rect x="16" y="32" width="2" height="2" fill="#010100" />
<rect x="18" y="32" width="2" height="2" fill="#010100" />
<rect x="20" y="32" width="2" height="2" fill="#010100" />
<rect x="22" y="32" width="2" height="2" fill="#8E4520" />
<rect x="24" y="32" width="2" height="2" fill="#8D441F" opacity="0.992157" />
<rect x="26" y="32" width="2" height="2" fill="#8D441F" opacity="0.992157" />
<rect x="28" y="32" width="2" height="2" fill="#8D441F" opacity="0.992157" />
<rect x="30" y="32" width="2" height="2" fill="#8D441F" opacity="0.992157" />
<rect x="32" y="32" width="2" height="2" fill="#8D441F" opacity="0.992157" />
<rect x="34" y="32" width="2" height="2" fill="#8D441F" opacity="0.992157" />
<rect x="36" y="32" width="2" height="2" fill="#8D441F" opacity="0.992157" />
<rect x="38" y="32" width="2" height="2" fill="#8D441F" opacity="0.992157" />
<rect x="40" y="32" width="2" height="2" fill="#8E4520" />
<rect x="42" y="32" width="2" height="2" fill="#010000" />
<rect x="44" y="32" width="2" height="2" fill="#000000" opacity="0.992157" />
<rect x="46" y="32" width="2" height="2" fill="#000000" opacity="0.992157" />
<rect x="48" y="32" width="2" height="2" fill="#000000" opacity="0.992157" />
<rect x="50" y="32" width="2" height="2" fill="#FFFFFF" />
<rect x="10" y="34" width="2" height="2" fill="#FFFFFF" />
<rect x="12" y="34" width="2" height="2" fill="#000000" />
<rect x="14" y="34" width="2" height="2" fill="#010000" />
<rect x="16" y="34" width="2" height="2" fill="#010000" />
<rect x="18" y="34" width="2" height="2" fill="#010000" />
<rect x="20" y="34" width="2" height="2" fill="#010100" />
<rect x="22" y="34" width="2" height="2" fill="#8D441F" opacity="0.992157" />
<rect x="24" y="34" width="2" height="2" fill="#8D441F" opacity="0.992157" />
<rect x="26" y="34" width="2" height="2" fill="#8D441F" opacity="0.992157" />
<rect x="28" y="34" width="2" height="2" fill="#8D441F" opacity="0.992157" />
<rect x="30" y="34" width="2" height="2" fill="#8D441F" opacity="0.992157" />
<rect x="32" y="34" width="2" height="2" fill="#8D441F" opacity="0.992157" />
<rect x="34" y="34" width="2" height="2" fill="#8D441F" opacity="0.992157" />
<rect x="36" y="34" width="2" height="2" fill="#8D441F" opacity="0.992157" />
<rect x="38" y="34" width="2" height="2" fill="#8D441F" opacity="0.992157" />
<rect x="40" y="34" width="2" height="2" fill="#8D441F" opacity="0.992157" />
<rect x="42" y="34" width="2" height="2" fill="#010000" />
<rect x="44" y="34" width="2" height="2" fill="#000000" opacity="0.992157" />
<rect x="46" y="34" width="2" height="2" fill="#000000" opacity="0.992157" />
<rect x="48" y="34" width="2" height="2" fill="#000000" opacity="0.992157" />
<rect x="50" y="34" width="2" height="2" fill="#FFFFFF" />
<rect x="10" y="36" width="2" height="2" fill="#FFFFFF" />
<rect x="12" y="36" width="2" height="2" fill="#000000" opacity="0.992157" />
<rect x="14" y="36" width="2" height="2" fill="#000000" opacity="0.992157" />
<rect x="16" y="36" width="2" height="2" fill="#000000" opacity="0.992157" />
<rect x="18" y="36" width="2" height="2" fill="#000000" />
<rect x="20" y="36" width="2" height="2" fill="#010000" />
<rect x="22" y="36" width="2" height="2" fill="#7B3716" opacity="0.992157" />
<rect x="24" y="36" width="2" height="2" fill="#8D441F" opacity="0.992157" />
<rect x="26" y="36" width="2" height="2" fill="#8D441F" opacity="0.992157" />
<rect x="28" y="36" width="2" height="2" fill="#010100" />
<rect x="30" y="36" width="2" height="2" fill="#FAF0EB" />
<rect x="32" y="36" width="2" height="2" fill="#FCF2ED" />
<rect x="34" y="36" width="2" height="2" fill="#FCF2ED" />
<rect x="36" y="36" width="2" height="2" fill="#FAF0EB" />
<rect x="38" y="36" width="2" height="2" fill="#010100" />
<rect x="40" y="36" width="2" height="2" fill="#7B3716" opacity="0.992157" />
<rect x="42" y="36" width="2" height="2" fill="#010000" />
<rect x="44" y="36" width="2" height="2" fill="#000000" opacity="0.992157" />
<rect x="46" y="36" width="2" height="2" fill="#000000" opacity="0.992157" />
<rect x="48" y="36" width="2" height="2" fill="#000000" opacity="0.992157" />
<rect x="50" y="36" width="2" height="2" fill="#FFFFFF" />
<rect x="8" y="38" width="2" height="2" fill="#FFFFFF" />
<rect x="10" y="38" width="2" height="2" fill="#000000" opacity="0.992157" />
<rect x="12" y="38" width="2" height="2" fill="#000000" opacity="0.992157" />
<rect x="14" y="38" width="2" height="2" fill="#000000" opacity="0.992157" />
<rect x="16" y="38" width="2" height="2" fill="#000000" opacity="0.992157" />
<rect x="18" y="38" width="2" height="2" fill="#000000" />
<rect x="20" y="38" width="2" height="2" fill="#000000" opacity="0.992157" />
<rect x="22" y="38" width="2" height="2" fill="#7B3716" opacity="0.992157" />
<rect x="24" y="38" width="2" height="2" fill="#8D441F" opacity="0.992157" />
<rect x="26" y="38" width="2" height="2" fill="#8D441F" opacity="0.992157" />
<rect x="28" y="38" width="2" height="2" fill="#8E4520" />
<rect x="30" y="38" width="2" height="2" fill="#010100" />
<rect x="32" y="38" width="2" height="2" fill="#000000" />
<rect x="34" y="38" width="2" height="2" fill="#000000" />
<rect x="36" y="38" width="2" height="2" fill="#010100" />
<rect x="38" y="38" width="2" height="2" fill="#8D441F" opacity="0.992157" />
<rect x="40" y="38" width="2" height="2" fill="#7B3716" opacity="0.992157" />
<rect x="42" y="38" width="2" height="2" fill="#000000" opacity="0.992157" />
<rect x="44" y="38" width="2" height="2" fill="#000000" opacity="0.992157" />
<rect x="46" y="38" width="2" height="2" fill="#000000" opacity="0.992157" />
<rect x="48" y="38" width="2" height="2" fill="#000000" opacity="0.992157" />
<rect x="50" y="38" width="2" height="2" fill="#000000" opacity="0.992157" />
<rect x="52" y="38" width="2" height="2" fill="#FFFFFF" />
<rect x="8" y="40" width="2" height="2" fill="#FFFFFF" />
<rect x="10" y="40" width="2" height="2" fill="#000000" opacity="0.992157" />
<rect x="12" y="40" width="2" height="2" fill="#000000" opacity="0.992157" />
<rect x="14" y="40" width="2" height="2" fill="#000000" opacity="0.992157" />
<rect x="16" y="40" width="2" height="2" fill="#000000" opacity="0.992157" />
<rect x="18" y="40" width="2" height="2" fill="#000000" opacity="0.992157" />
<rect x="20" y="40" width="2" height="2" fill="#39405D" />
<rect x="22" y="40" width="2" height="2" fill="#24252C" />
<rect x="24" y="40" width="2" height="2" fill="#8D441F" opacity="0.992157" />
<rect x="26" y="40" width="2" height="2" fill="#8D441F" opacity="0.992157" />
<rect x="28" y="40" width="2" height="2" fill="#8D441F" opacity="0.992157" />
<rect x="30" y="40" width="2" height="2" fill="#8D441F" opacity="0.992157" />
<rect x="32" y="40" width="2" height="2" fill="#8D441F" opacity="0.992157" />
<rect x="34" y="40" width="2" height="2" fill="#8E4520" />
<rect x="36" y="40" width="2" height="2" fill="#8D441F" opacity="0.992157" />
<rect x="38" y="40" width="2" height="2" fill="#7B3716" opacity="0.992157" />
<rect x="40" y="40" width="2" height="2" fill="#000000" opacity="0.992157" />
<rect x="42" y="40" width="2" height="2" fill="#000000" opacity="0.992157" />
<rect x="44" y="40" width="2" height="2" fill="#000000" opacity="0.992157" />
<rect x="46" y="40" width="2" height="2" fill="#000000" opacity="0.992157" />
<rect x="48" y="40" width="2" height="2" fill="#000000" opacity="0.992157" />
<rect x="50" y="40" width="2" height="2" fill="#000000" opacity="0.992157" />
<rect x="52" y="40" width="2" height="2" fill="#FFFFFF" />
<rect x="10" y="42" width="2" height="2" fill="#FFFFFF" />
<rect x="12" y="42" width="2" height="2" fill="#000000" opacity="0.992157" />
<rect x="14" y="42" width="2" height="2" fill="#7B3716" opacity="0.992157" />
<rect x="16" y="42" width="2" height="2" fill="#7B3716" opacity="0.992157" />
<rect x="18" y="42" width="2" height="2" fill="#7B3716" opacity="0.992157" />
<rect x="20" y="42" width="2" height="2" fill="#BDBFC6" />
<rect x="22" y="42" width="2" height="2" fill="#24252C" />
<rect x="24" y="42" width="2" height="2" fill="#8D441F" opacity="0.992157" />
<rect x="26" y="42" width="2" height="2" fill="#8D441F" opacity="0.992157" />
<rect x="28" y="42" width="2" height="2" fill="#7B3918" />
<rect x="30" y="42" width="2" height="2" fill="#7B3918" />
<rect x="32" y="42" width="2" height="2" fill="#7B3918" />
<rect x="34" y="42" width="2" height="2" fill="#7B3918" />
<rect x="36" y="42" width="2" height="2" fill="#7B3918" />
<rect x="38" y="42" width="2" height="2" fill="#24252C" />
<rect x="40" y="42" width="2" height="2" fill="#39405D" />
<rect x="42" y="42" width="2" height="2" fill="#7D3918" />
<rect x="44" y="42" width="2" height="2" fill="#7D3918" />
<rect x="46" y="42" width="2" height="2" fill="#7D3918" />
<rect x="48" y="42" width="2" height="2" fill="#000000" />
<rect x="50" y="42" width="2" height="2" fill="#000000" opacity="0.992157" />
<rect x="52" y="42" width="2" height="2" fill="#FFFFFF" />
<rect x="12" y="44" width="2" height="2" fill="#FFFFFF" />
<rect x="14" y="44" width="2" height="2" fill="#FFFFFF" />
<rect x="16" y="44" width="2" height="2" fill="#8D441F" opacity="0.992157" />
<rect x="18" y="44" width="2" height="2" fill="#8D441F" opacity="0.992157" />
<rect x="20" y="44" width="2" height="2" fill="#BDBFC6" />
<rect x="22" y="44" width="2" height="2" fill="#9F3A75" />
<rect x="24" y="44" width="2" height="2" fill="#24252C" />
<rect x="26" y="44" width="2" height="2" fill="#8D441F" opacity="0.992157" />
<rect x="28" y="44" width="2" height="2" fill="#8D441F" opacity="0.992157" />
<rect x="30" y="44" width="2" height="2" fill="#8D441F" opacity="0.992157" />
<rect x="32" y="44" width="2" height="2" fill="#8D441F" opacity="0.992157" />
<rect x="34" y="44" width="2" height="2" fill="#8D441F" opacity="0.992157" />
<rect x="36" y="44" width="2" height="2" fill="#8D441F" opacity="0.992157" />
<rect x="38" y="44" width="2" height="2" fill="#24252C" />
<rect x="40" y="44" width="2" height="2" fill="#BDBFC6" />
<rect x="42" y="44" width="2" height="2" fill="#FFFFFF" />
<rect x="44" y="44" width="2" height="2" fill="#904521" />
<rect x="46" y="44" width="2" height="2" fill="#7D3918" />
<rect x="48" y="44" width="2" height="2" fill="#7D3918" />
<rect x="50" y="44" width="2" height="2" fill="#FFFFFF" />
<rect x="14" y="46" width="2" height="2" fill="#FFFFFF" />
<rect x="16" y="46" width="2" height="2" fill="#FFFFFF" />
<rect x="18" y="46" width="2" height="2" fill="#8D441F" opacity="0.992157" />
<rect x="20" y="46" width="2" height="2" fill="#39405D" />
<rect x="22" y="46" width="2" height="2" fill="#BDBFC6" />
<rect x="24" y="46" width="2" height="2" fill="#39405D" />
<rect x="26" y="46" width="2" height="2" fill="#24252C" />
<rect x="28" y="46" width="2" height="2" fill="#8E4520" />
<rect x="30" y="46" width="2" height="2" fill="#8D441F" opacity="0.992157" />
<rect x="32" y="46" width="2" height="2" fill="#9F3975" opacity="0.992157" />
<rect x="34" y="46" width="2" height="2" fill="#24252C" />
<rect x="36" y="46" width="2" height="2" fill="#24252C" />
<rect x="38" y="46" width="2" height="2" fill="#9F3975" opacity="0.992157" />
<rect x="40" y="46" width="2" height="2" fill="#39405D" />
<rect x="42" y="46" width="2" height="2" fill="#8D441F" opacity="0.992157" />
<rect x="44" y="46" width="2" height="2" fill="#8D441F" opacity="0.992157" />
<rect x="46" y="46" width="2" height="2" fill="#904520" />
<rect x="48" y="46" width="2" height="2" fill="#FFFFFF" />
<rect x="50" y="46" width="2" height="2" fill="#FFFFFF" />
<rect x="16" y="48" width="2" height="2" fill="#FFFFFF" />
<rect x="18" y="48" width="2" height="2" fill="#FFFFFF" />
<rect x="20" y="48" width="2" height="2" fill="#FFFFFF" />
<rect x="22" y="48" width="2" height="2" fill="#8D441F" opacity="0.992157" />
<rect x="24" y="48" width="2" height="2" fill="#BDBFC6" />
<rect x="26" y="48" width="2" height="2" fill="#A03B74" />
<rect x="28" y="48" width="2" height="2" fill="#24252C" />
<rect x="30" y="48" width="2" height="2" fill="#24252C" />
<rect x="32" y="48" width="2" height="2" fill="#24252C" />
<rect x="34" y="48" width="2" height="2" fill="#24252C" />
<rect x="36" y="48" width="2" height="2" fill="#39405D" />
<rect x="38" y="48" width="2" height="2" fill="#BDBFC6" />
<rect x="40" y="48" width="2" height="2" fill="#8D441F" opacity="0.992157" />
<rect x="42" y="48" width="2" height="2" fill="#8D441F" opacity="0.992157" />
<rect x="44" y="48" width="2" height="2" fill="#FFFFFF" />
<rect x="46" y="48" width="2" height="2" fill="#FFFFFF" />
<rect x="48" y="48" width="2" height="2" fill="#FFFFFF" />
<rect x="20" y="50" width="2" height="2" fill="#FFFFFF" />
<rect x="22" y="50" width="2" height="2" fill="#FFFFFF" />
<rect x="24" y="50" width="2" height="2" fill="#8D441F" opacity="0.992157" />
<rect x="26" y="50" width="2" height="2" fill="#39405D" />
<rect x="28" y="50" width="2" height="2" fill="#BDBFC6" />
<rect x="30" y="50" width="2" height="2" fill="#BDBFC6" />
<rect x="32" y="50" width="2" height="2" fill="#BDBFC6" />
<rect x="34" y="50" width="2" height="2" fill="#BDBFC6" />
<rect x="36" y="50" width="2" height="2" fill="#BDBFC6" />
<rect x="38" y="50" width="2" height="2" fill="#8D441F" opacity="0.992157" />
<rect x="40" y="50" width="2" height="2" fill="#FFFFFF" />
<rect x="42" y="50" width="2" height="2" fill="#FFFFFF" />
<rect x="44" y="50" width="2" height="2" fill="#FFFFFF" />
<rect x="22" y="52" width="2" height="2" fill="#FFFFFF" />
<rect x="24" y="52" width="2" height="2" fill="#FFFFFF" />
<rect x="26" y="52" width="2" height="2" fill="#FFFFFF" />
<rect x="28" y="52" width="2" height="2" fill="#8E4520" />
<rect x="30" y="52" width="2" height="2" fill="#8E4520" />
<rect x="32" y="52" width="2" height="2" fill="#773412" />
<rect x="34" y="52" width="2" height="2" fill="#8E4520" />
<rect x="36" y="52" width="2" height="2" fill="#FFFFFF" />
<rect x="38" y="52" width="2" height="2" fill="#FFFFFF" />
<rect x="40" y="52" width="2" height="2" fill="#FFFFFF" />
<rect x="26" y="54" width="2" height="2" fill="#FFFFFF" />
<rect x="28" y="54" width="2" height="2" fill="#FFFFFF" />
<rect x="30" y="54" width="2" height="2" fill="#FFFFFF" />
<rect x="32" y="54" width="2" height="2" fill="#FFFFFF" />
<rect x="34" y="54" width="2" height="2" fill="#FFFFFF" />
<rect x="36" y="54" width="2" height="2" fill="#FFFFFF" />
</svg>